<?xml version="1.0" standalone="no"?>
<!DOCTYPE svg PUBLIC "-//W3C//DTD SVG 20010904//EN"
 "http://www.w3.org/TR/2001/REC-SVG-20010904/DTD/svg10.dtd">
<svg version="1.0" xmlns="http://www.w3.org/2000/svg"
 width="2134.000000pt" height="2134.000000pt" viewBox="0 0 2134.000000 2134.000000"
 preserveAspectRatio="xMidYMid meet">
<metadata>
Created by potrace 1.14, written by Peter Selinger 2001-2017
</metadata>
<g transform="translate(0.000000,2134.000000) scale(0.100000,-0.100000)"
fill="#000000" stroke="none">
<path d="M11997 15398 c-7 -18 -171 -409 -507 -1208 -160 -382 -416 -990 -567
-1350 -283 -674 -452 -1076 -708 -1685 -81 -192 -176 -417 -210 -500 -88 -211
-288 -685 -412 -980 -58 -137 -134 -317 -168 -400 -66 -158 -1167 -2778 -1311
-3120 -46 -110 -84 -203 -84 -207 0 -5 200 -8 445 -8 l444 0 14 28 c12 23 341
802 617 1462 43 102 292 696 555 1320 262 624 505 1203 540 1285 34 83 295
704 580 1380 284 677 563 1340 620 1475 56 135 317 755 579 1378 262 622 476
1134 476 1137 0 2 -202 5 -449 5 -353 0 -450 -2 -454 -12z"/>
<path d="M8970 15380 c-161 -42 -301 -140 -393 -277 -42 -63 -422 -961 -1983
-4685 -215 -513 -316 -753 -459 -1093 -81 -192 -193 -460 -250 -595 -56 -135
-191 -456 -300 -715 -109 -258 -233 -553 -275 -655 -43 -102 -191 -455 -330
-785 -139 -330 -255 -608 -257 -618 -5 -16 19 -17 443 -15 l449 3 327 780
c181 429 425 1012 544 1295 119 283 259 616 311 740 52 124 236 560 408 970
172 410 698 1663 1170 2785 471 1122 927 2207 1012 2410 85 204 164 390 174
414 10 24 19 47 19 52 0 5 -120 9 -267 8 -231 0 -278 -3 -343 -19z"/>
<path d="M10307 15318 c-19 -46 -152 -362 -295 -703 -143 -341 -410 -975 -592
-1410 -183 -434 -390 -927 -460 -1095 -152 -363 -974 -2321 -1065 -2535 -35
-82 -354 -843 -710 -1690 -355 -847 -683 -1625 -727 -1730 -44 -104 -82 -196
-85 -202 -4 -10 89 -13 445 -13 l450 0 47 112 c26 62 308 734 627 1493 319
759 608 1448 643 1530 34 83 165 393 290 690 125 297 350 833 500 1190 580
1379 814 1938 1017 2420 116 275 304 723 418 995 115 272 258 614 319 759 61
145 111 266 111 268 0 1 -202 3 -449 3 l-449 0 -35 -82z"/>
<path d="M12947 13707 c-115 -271 -216 -510 -224 -532 l-16 -41 156 -369 c232
-552 1260 -2997 1332 -3170 35 -82 146 -348 248 -590 307 -731 1269 -3019
1274 -3032 4 -10 104 -13 455 -13 356 0 449 3 445 13 -2 6 -64 154 -137 327
-315 749 -592 1409 -725 1725 -79 187 -202 482 -275 655 -73 173 -145 344
-160 380 -15 36 -80 189 -143 340 -63 151 -283 673 -487 1160 -205 487 -401
953 -435 1035 -35 83 -230 548 -435 1035 -205 487 -435 1036 -512 1220 -77
184 -143 338 -147 342 -3 4 -100 -215 -214 -485z"/>
<path d="M12101 11693 l-223 -527 121 -285 c235 -559 422 -1003 656 -1561 130
-311 254 -605 275 -655 89 -210 1028 -2443 1084 -2577 l61 -148 448 0 c246 0
447 3 447 7 0 4 -63 156 -139 338 -138 328 -663 1576 -1018 2420 -102 242
-213 508 -248 590 -133 315 -810 1927 -1048 2493 -100 237 -184 432 -187 432
-3 0 -106 -237 -229 -527z"/>
<path d="M11271 9723 l-222 -526 127 -301 c70 -166 201 -476 291 -691 91 -214
269 -635 395 -935 127 -300 304 -722 395 -937 l166 -393 448 0 449 0 -19 48
c-11 26 -186 443 -390 927 -204 484 -604 1432 -888 2108 -285 675 -520 1227
-523 1227 -3 0 -106 -237 -229 -527z"/>
</g>
</svg>
